Poster: 
http://www.shotpix.com/images/63478683515005472804.jpg

Info:

Format : AVI
Format/Info : Audio Video Interleave
File size : 424 MiB
Duration : 2h 25mn
Overall bit rate : 406 Kbps

Video
ID : 0
Format : MPEG-4 Visual
Format profile : Simple@L1
Format settings, BVOP : No
Format settings, QPel : No
Format settings, GMC : No warppoints
Format settings, Matrix : Default (H.263)
Codec ID : FMP4
Duration : 2h 25mn
Source duration : 2h 11mn
Bit rate : 271 Kbps
Width : 352 pixels
Height : 158 pixels
Display aspect ratio : 2.228
Frame rate : 25.000 fps
Color space : YUV
Chroma subsampling : 4:2:0
Bit depth : 8 bits
Scan type : Progressive
Compression mode : Lossy
Bits/(Pixel*Frame) : 0.195
Stream size : 254 MiB (60%)
Writing library : Lavc52.37.0

Audio #1
ID : 1
Format : MPEG Audio
Format version : Version 1
Format profile : Layer 3
Mode : Joint stereo
Mode extension : MS Stereo
Codec ID : 55
Codec ID/Hint : MP3
Duration : 2h 25mn
Source duration : 2h 11mn
Bit rate mode : Constant
Bit rate : 64.0 Kbps
Channel(s) : 2 channels
Sampling rate : 48.0 KHz
Compression mode : Lossy
Stream size : 60.1 MiB (14%)
Alignment : Aligned on interleaves
Interleave, duration : 160 ms (4.00 video frames)
Interleave, preload duration : 216 ms
Title : VTS_01_1-muxed (1) (1)-a

Audio #2
ID : 2
Format : MPEG Audio
Format version : Version 1
Format profile : Layer 3
Mode : Joint stereo
Mode extension : MS Stereo
Codec ID : 55
Codec ID/Hint : MP3
Duration : 2h 25mn
Source duration : 2h 11mn
Bit rate mode : Constant
Bit rate : 64.0 Kbps
Channel(s) : 2 channels
Sampling rate : 48.0 KHz
Compression mode : Lossy
Stream size : 60.1 MiB (14%)
Alignment : Aligned on interleaves
Interleave, duration : 160 ms (4.00 video frames)
Interleave, preload duration : 216 ms
Writing library : LAME3.96.1

Screens:
 
http://www.shotpix.com/images/94224409982344414202.jpg 
http://www.shotpix.com/images/57900727416405866002.jpg 
http://www.shotpix.com/images/57900727416405866002.jpg 
http://www.shotpix.com/images/95892317331537000653.jpg 
http://www.shotpix.com/images/70092231576449702556.jpg 
http://www.shotpix.com/images/74799892169384578408.jpg 
http://www.shotpix.com/images/78454522047448315645.jpg 
http://www.shotpix.com/images/75330162439187957715.jpg